<svg xmlns="http://www.w3.org/2000/svg" viewBox="0 0 979.95 907.6"><title>warning</title><path d="M868,953.8H132.1c-49.3,0-89-19.3-108.8-53.1S5.9,822.9,29.9,779.8L401.2,114.4c24.2-43.4,60.1-68.2,98.6-68.2s74.4,24.8,98.6,68.2L970,779.9c24,43.1,26.5,87.1,6.7,120.8S917.3,953.8,868,953.8ZM499.8,116.1c-12.2,0-26.2,12.1-37.6,32.4L90.9,813.9c-11.6,20.9-14.4,39.6-7.4,51.5S108.2,884,132,884H868c23.9,0,41.6-6.7,48.5-18.6s4.2-30.6-7.4-51.4L537.4,148.5c-11.3-20.3-25.4-32.4-37.6-32.4Zm.2,522.6a34.87,34.87,0,0,1-34.9-34.9V289.5a34.9,34.9,0,0,1,69.8,0V603.8A34.87,34.87,0,0,1,500,638.7ZM447.6,761.1a52.3,52.3,0,1,1,104.6,0m.2-6a52.3,52.3,0,1,1-104.6,0" transform="translate(-10 -46.2)" style="fill:#fff"/></svg>